<?xml version="1.0" standalone="no"?>
<!DOCTYPE svg PUBLIC "-//W3C//DTD SVG 20010904//EN"
 "http://www.w3.org/TR/2001/REC-SVG-20010904/DTD/svg10.dtd">
<svg version="1.0" xmlns="http://www.w3.org/2000/svg"
 width="256.000000pt" height="256.000000pt" viewBox="0 0 256.000000 256.000000"
 preserveAspectRatio="xMidYMid meet">

<g transform="translate(0.000000,256.000000) scale(0.100000,-0.100000)"
fill="#000000" stroke="none">
<path d="M0 1280 l0 -1280 128 0 128 0 19 43 c80 183 84 190 110 183 19 -5 23
-3 19 9 -4 8 -10 15 -15 15 -5 0 -9 5 -9 10 0 16 36 12 51 -6 11 -14 13 -14
21 0 5 9 14 16 19 16 6 0 8 -4 4 -9 -3 -5 3 -12 13 -16 20 -6 22 -40 6 -67 -5
-9 -1 -8 11 2 10 8 16 10 12 3 -4 -6 -3 -15 3 -18 8 -5 7 -12 -2 -23 -14 -16
-11 -15 34 7 32 16 58 2 58 -30 0 -27 19 -23 30 6 8 22 12 24 30 13 15 -10 19
-22 17 -55 -3 -45 1 -51 22 -31 10 11 11 10 6 -4 -4 -10 -2 -18 4 -18 6 0 8
-7 5 -15 -5 -11 1 -15 24 -15 29 0 48 20 43 46 -1 7 3 24 9 39 9 24 14 26 43
20 17 -4 54 -21 81 -37 53 -32 116 -48 116 -29 0 6 17 27 38 46 29 28 33 35
17 33 -11 -2 -19 2 -18 9 1 6 -11 14 -27 18 -43 9 -47 25 -7 25 57 0 227 67
227 89 0 5 -8 12 -17 14 -13 3 -10 5 7 6 l25 2 -24 19 c-23 20 -23 20 -2 20
22 0 29 26 9 32 -8 3 -9 11 -3 24 4 10 9 21 9 24 1 3 15 19 32 35 17 17 35 37
40 45 5 8 32 35 59 59 94 83 196 186 217 219 11 19 33 73 49 120 29 90 38 79
15 -19 -7 -30 -14 -98 -15 -150 -1 -52 -4 -105 -7 -119 -4 -22 -3 -23 5 -5 5
11 10 30 10 43 1 30 21 18 21 -13 0 -13 4 -26 8 -29 13 -8 35 11 28 23 -5 7 2
11 18 11 26 0 50 -19 73 -56 11 -18 11 -18 6 2 -3 15 3 28 21 42 32 25 33 36
4 29 l-23 -6 23 16 c12 8 22 21 22 29 0 7 10 14 23 16 14 2 23 11 25 25 4 28
18 30 25 3 5 -18 -14 -45 -25 -35 -3 3 -13 -4 -23 -15 -21 -23 -13 -39 10 -20
8 7 23 9 32 5 17 -6 17 -7 1 -16 -10 -5 -25 -26 -34 -45 -15 -30 -15 -37 -3
-45 8 -5 20 -9 28 -9 10 0 8 -6 -8 -21 -12 -12 -20 -23 -17 -26 10 -10 55 7
58 22 2 10 7 12 18 5 11 -7 14 -26 12 -77 l-2 -68 23 27 c12 16 27 28 32 28
14 0 12 -69 -1 -78 -7 -4 53 -74 155 -180 l166 -172 93 0 92 0 0 1280 0 1280
-1280 0 -1280 0 0 -1280z m1190 758 c30 -6 74 -19 96 -30 23 -10 46 -18 50
-17 5 1 16 0 24 -4 8 -3 33 -11 55 -17 58 -17 248 -92 260 -102 5 -4 10 -28
11 -53 1 -24 9 -54 18 -67 9 -12 16 -27 16 -33 0 -5 -5 -2 -11 8 -30 51 -33
-28 -4 -97 18 -43 21 -100 4 -76 -8 11 -9 -1 -4 -45 4 -33 7 -96 6 -140 -1
-44 2 -91 7 -105 9 -25 8 -31 -28 -115 -9 -22 -20 -60 -23 -85 -3 -25 -13 -59
-21 -75 -9 -17 -16 -35 -16 -42 0 -6 -12 -26 -27 -44 l-27 -32 24 13 c24 13
24 12 10 -6 -23 -30 -33 -34 -49 -21 -10 8 -13 8 -8 1 4 -7 -3 -14 -18 -18
-14 -4 -25 -12 -25 -19 0 -11 -31 -51 -81 -106 -21 -22 -23 -23 -29 -6 -5 15
-12 10 -40 -28 -30 -42 -62 -65 -82 -59 -5 1 -8 -3 -8 -9 0 -6 -7 -9 -15 -6
-8 4 -17 2 -20 -4 -4 -5 -10 -7 -15 -4 -5 3 -12 0 -15 -6 -4 -5 -13 -8 -20 -5
-8 3 -28 1 -44 -4 -17 -5 -31 -5 -31 -1 0 4 -20 6 -45 6 -37 -2 -45 1 -45 16
0 19 -16 27 -68 33 -42 5 -43 6 -50 61 l-5 46 29 -12 c16 -6 48 -13 71 -14 23
-1 49 -8 58 -15 8 -7 15 -8 15 -4 0 5 9 15 21 22 17 11 20 11 14 0 -3 -7 -1
-6 7 3 7 9 18 14 24 12 17 -6 26 25 14 48 -8 15 -17 18 -38 13 -15 -4 -29 -7
-32 -6 -38 0 -55 7 -85 34 -27 23 -33 33 -23 39 7 5 21 6 31 3 13 -4 17 0 17
21 0 22 3 25 21 20 11 -4 46 -8 77 -10 77 -4 75 -3 68 -20 -5 -15 15 -21 28
-8 3 4 12 8 19 9 51 8 75 13 97 22 23 9 23 9 5 19 -38 20 -128 35 -136 22 -4
-8 -26 -9 -70 -4 -41 5 -57 10 -45 14 13 5 3 11 -38 21 -31 7 -56 16 -56 20 0
9 52 20 96 20 24 0 34 5 39 20 4 13 15 20 31 20 13 0 38 14 56 31 25 23 28 29
13 25 -11 -3 -62 -6 -114 -7 -83 -3 -94 -1 -104 16 -20 36 -16 98 9 151 13 28
24 58 24 67 0 9 9 39 20 67 11 28 20 69 20 91 0 36 -6 47 -54 94 -55 53 -108
75 -182 75 -27 0 -44 28 -24 40 13 8 30 77 34 140 1 19 10 60 21 90 11 30 18
58 18 61 -3 11 51 57 72 61 32 7 165 -1 225 -14z m-628 -175 l3 -28 19 21 c25
29 47 20 68 -24 15 -32 18 -72 19 -257 0 -121 -2 -264 -6 -317 -6 -74 -5 -101
5 -113 16 -19 8 -27 -25 -27 -15 0 -25 -6 -25 -15 0 -11 8 -14 30 -11 28 4 30
2 30 -27 0 -18 10 -67 21 -111 12 -43 22 -88 23 -99 0 -11 5 -23 10 -26 5 -4
10 -27 11 -52 1 -37 -1 -44 -16 -40 -21 6 -59 -30 -59 -56 0 -10 10 -25 21
-33 19 -12 21 -18 12 -43 -9 -29 -67 -70 -83 -60 -5 3 -7 21 -5 40 4 26 1 35
-10 35 -8 0 -18 -6 -22 -14 -4 -8 -19 -16 -32 -18 -13 -1 -29 -12 -35 -23 -6
-11 -12 -22 -14 -24 -1 -3 -12 5 -25 17 -19 18 -28 20 -55 13 -32 -9 -57 4
-34 18 6 3 14 19 17 34 7 25 5 27 -26 27 -33 0 -34 1 -10 13 24 12 27 34 4 29
-8 -2 -13 8 -13 28 0 30 14 41 23 18 2 -7 7 -10 11 -7 4 4 0 14 -9 22 -8 9
-15 21 -15 27 0 8 -9 10 -25 6 -20 -5 -26 -2 -31 18 -3 14 -3 30 1 36 4 6 0
22 -9 35 -9 14 -13 32 -9 42 6 16 5 17 -11 3 -16 -13 -20 -12 -38 10 -11 14
-28 23 -37 21 -14 -3 -14 -1 1 15 9 11 18 28 20 39 3 18 -2 20 -36 17 -25 -3
-42 1 -47 10 -13 21 -10 55 6 72 8 8 12 22 8 31 -5 15 -3 16 13 7 15 -8 25 -6
44 9 14 10 35 19 48 19 12 0 22 6 22 14 0 20 -68 16 -80 -4 -7 -11 -11 -8 -19
13 -6 16 -15 25 -21 22 -5 -3 -10 -1 -10 4 0 14 16 14 39 1 14 -7 23 -5 35 9
24 27 2 65 -32 56 -17 -4 -23 -2 -20 7 3 7 16 13 29 14 13 0 23 5 22 11 -3 13
25 38 33 30 3 -3 0 -15 -6 -27 -9 -17 -8 -24 11 -39 21 -17 22 -16 45 3 21 19
21 22 7 38 -13 14 -13 21 -3 33 18 21 -7 72 -42 84 -21 8 -26 15 -24 35 3 33
9 39 54 51 36 10 37 12 40 63 2 28 7 52 13 52 15 0 30 -49 23 -76 -4 -14 -2
-24 5 -24 6 0 11 -7 11 -16 0 -9 6 -14 12 -12 14 5 15 33 3 61 -14 34 11 42
40 13 32 -32 35 -32 35 -2 0 13 6 36 14 51 14 27 12 55 -4 55 -4 0 -13 -14
-19 -32 -13 -38 -21 -32 -31 24 -9 49 3 76 26 57 8 -6 14 -18 14 -25 0 -8 6
-14 14 -14 8 0 13 8 12 17 0 10 12 23 28 32 l30 14 -28 22 c-27 22 -28 34 -10
93 6 22 23 13 26 -15z m-241 -135 c-5 -13 -17 -25 -27 -27 -17 -3 -16 0 5 23
30 32 33 32 22 4z m57 -34 c-4 -35 -23 -42 -32 -12 -3 15 0 27 9 34 8 6 13 13
11 16 -1 3 1 2 6 -2 5 -4 8 -20 6 -36z m-48 -34 c0 -5 -5 -10 -11 -10 -5 0 -7
5 -4 10 3 6 8 10 11 10 2 0 4 -4 4 -10z m-121 -59 c9 -16 6 -19 -19 -23 -42
-6 -71 25 -32 35 33 9 41 7 51 -12z m684 -48 c-7 -2 -19 -2 -25 0 -7 3 -2 5
12 5 14 0 19 -2 13 -5z m-713 -11 c0 -10 -22 -32 -32 -32 -13 0 -9 28 5 33 19
8 27 8 27 -1z m763 -10 c-2 -6 3 -9 11 -6 8 3 17 1 20 -5 11 -17 -13 -23 -50
-11 -29 10 -33 14 -23 26 14 17 45 14 42 -4z m-764 -68 c-17 -21 -21 -11 -8
22 10 23 13 25 16 11 3 -10 -1 -25 -8 -33z m1871 26 c0 -5 -2 -10 -4 -10 -3 0
-8 5 -11 10 -3 6 -1 10 4 10 6 0 11 -4 11 -10z m-1034 -31 c13 -26 14 -34 2
-45 -9 -9 -18 -10 -28 -4 -13 8 -12 10 3 10 21 0 22 19 1 48 -8 12 -10 22 -5
22 6 0 18 -14 27 -31z m-41 -27 c-8 -2 -12 -8 -9 -14 4 -7 -7 -8 -32 -5 -51 6
-71 15 -79 35 -5 14 -4 14 13 -1 26 -23 69 -22 84 3 12 19 14 19 26 3 11 -15
11 -19 -3 -21z m923 26 c14 -14 16 -32 2 -23 -5 3 -24 -8 -42 -25 l-33 -30 28
10 c16 5 36 14 46 20 16 8 19 4 25 -38 3 -26 2 -63 -4 -82 -5 -19 -10 -48 -10
-65 0 -53 -20 -103 -54 -140 -18 -19 -30 -35 -26 -35 4 0 13 7 20 15 7 9 15
13 18 11 3 -3 18 4 34 15 16 12 32 19 35 16 3 -4 14 4 23 16 10 12 22 19 26
15 4 -5 0 -16 -9 -25 -21 -24 -31 -69 -18 -77 6 -4 11 -2 11 3 0 6 5 11 10 11
6 0 8 -10 4 -24 -3 -13 -7 -41 -8 -63 -3 -47 -13 -66 -32 -59 -18 7 -64 -10
-64 -24 0 -6 -7 -22 -17 -36 -11 -18 -18 -22 -24 -13 -5 9 -11 10 -21 2 -14
-11 -108 -36 -114 -30 -2 2 1 18 6 37 5 18 12 63 15 99 9 110 10 110 53 106
l37 -5 -33 9 c-32 8 -61 35 -62 56 0 19 40 170 54 205 8 19 17 46 20 60 6 27
65 99 82 100 5 0 15 -5 22 -12z m-1668 -63 c0 -16 -26 -32 -37 -21 -3 3 0 12
6 20 11 13 8 16 -13 22 -30 7 -34 21 -8 26 20 5 52 -24 52 -47z m1807 49 c-3
-3 -12 -4 -19 -1 -8 3 -5 6 6 6 11 1 17 -2 13 -5z m-1027 -83 c0 -11 -5 -23
-10 -26 -6 -3 -15 -26 -21 -51 -6 -24 -26 -63 -44 -87 -40 -53 -62 -98 -58
-117 2 -8 -13 -35 -32 -59 l-35 -44 0 38 c0 30 -3 35 -14 26 -11 -9 -13 -7
-12 11 1 13 -11 48 -26 78 -23 45 -28 68 -28 125 1 103 13 115 116 108 43 -3
95 -1 114 5 49 14 50 14 50 -7z m-905 -39 c-3 -4 -10 0 -15 8 -6 9 -5 17 3 22
13 8 24 -19 12 -30z m60 -51 c-6 -19 -41 -38 -51 -28 -2 2 8 16 22 31 30 29
39 28 29 -3z m-25 -61 c0 -5 -2 -10 -4 -10 -3 0 -8 5 -11 10 -3 6 -1 10 4 10
6 0 11 -4 11 -10z m723 -290 c8 -11 16 -18 18 -16 2 2 5 -16 6 -40 3 -54 -13
-57 -34 -7 -30 72 -24 111 10 63z m1037 -104 c0 -7 -7 -19 -15 -26 -8 -7 -15
-19 -15 -27 0 -7 -8 -23 -19 -34 l-18 -20 -6 21 c-8 32 -8 35 6 35 17 0 37 21
37 38 0 7 3 17 7 20 11 12 23 8 23 -7z m85 4 c3 -5 1 -10 -4 -10 -6 0 -11 5
-11 10 0 6 2 10 4 10 3 0 8 -4 11 -10z m-1189 -115 c1 -11 3 -26 3 -33 1 -7 5
-11 9 -8 5 3 8 -6 8 -19 -1 -14 -5 -25 -9 -25 -4 0 -10 0 -15 0 -12 0 -29 89
-19 99 5 5 4 17 -2 29 -6 11 -11 24 -11 29 1 14 33 -51 36 -72z m971 43 c-3
-8 -6 -5 -6 6 -1 11 2 17 5 13 3 -3 4 -12 1 -19z m-1423 -73 c-4 -8 -8 -15
-10 -15 -2 0 -4 7 -4 15 0 8 4 15 10 15 5 0 7 -7 4 -15z m513 -91 c-9 -9 -28
6 -21 18 4 6 10 6 17 -1 6 -6 8 -13 4 -17z m-487 -22 c0 -13 -23 -32 -39 -32
-11 0 -10 4 4 20 19 21 35 26 35 12z m128 -44 c-6 -18 -28 -21 -28 -4 0 9 7
16 16 16 9 0 14 -5 12 -12z m-158 -18 c0 -5 -5 -10 -11 -10 -5 0 -7 5 -4 10 3
6 8 10 11 10 2 0 4 -4 4 -10z m58 -42 c-3 -7 -13 -15 -24 -17 -16 -3 -17 -1
-5 13 16 19 34 21 29 4z m-34 -173 c-3 -8 -9 -14 -12 -13 -20 2 -32 -3 -27
-12 4 -6 11 -8 16 -5 5 4 9 4 9 1 0 -15 -74 -173 -86 -182 -7 -6 -18 -22 -24
-35 -8 -19 -9 -11 -5 36 7 83 14 119 26 123 5 2 7 8 3 13 -3 5 -1 9 3 9 5 0
17 14 27 31 22 38 82 67 70 34z m111 5 c4 -6 -5 -10 -20 -10 -15 0 -24 4 -20
10 3 6 12 10 20 10 8 0 17 -4 20 -10z m502 -116 c-3 -3 -12 -4 -19 -1 -8 3 -5
6 6 6 11 1 17 -2 13 -5z m-770 -86 c-3 -7 -5 -2 -5 12 0 14 2 19 5 13 2 -7 2
-19 0 -25z"/>
<path d="M1298 1610 c-16 -25 -29 -26 -22 -2 3 9 -2 4 -12 -13 -16 -27 -18
-28 -24 -10 -6 17 -8 14 -12 -12 -5 -35 4 -43 52 -43 l28 0 -21 -42 c-27 -56
-31 -79 -12 -72 17 7 19 -4 5 -26 -7 -11 -3 -18 13 -27 27 -15 57 -17 57 -3 0
6 8 10 17 10 11 0 4 9 -20 26 -31 21 -36 28 -26 40 16 19 29 18 29 -4 0 -30
18 -40 58 -31 20 4 39 4 42 -1 9 -15 57 -22 65 -10 4 6 15 8 26 5 10 -4 19 -2
19 3 0 5 -10 13 -22 16 -22 7 -22 8 -4 15 17 6 14 12 -26 44 -24 20 -61 43
-81 52 -20 8 -37 18 -37 21 0 3 24 4 53 3 29 -1 59 1 66 5 14 9 82 -34 75 -46
-3 -4 2 -5 10 -2 21 8 20 19 -4 42 -19 18 -85 44 -120 48 -8 1 -39 9 -69 18
-71 21 -88 20 -103 -4z m148 -112 c29 -22 45 -40 40 -45 -1 -1 -27 7 -57 18
-30 11 -72 20 -94 20 -37 0 -39 1 -21 14 30 23 98 19 132 -7z"/>
<path d="M1560 949 c0 -15 18 -19 23 -6 3 8 -1 14 -9 14 -8 0 -14 -4 -14 -8z"/>
<path d="M1137 866 c-4 -10 -1 -13 8 -9 8 3 12 9 9 14 -7 12 -11 11 -17 -5z"/>
<path d="M651 1684 c0 -11 3 -14 6 -6 3 7 2 16 -1 19 -3 4 -6 -2 -5 -13z"/>
<path d="M491 1483 c0 -25 1 -26 9 -8 12 27 12 35 0 35 -5 0 -10 -12 -9 -27z"/>
<path d="M420 1472 c0 -10 4 -22 9 -27 5 -6 11 -23 13 -40 2 -23 8 -30 25 -31
26 -1 45 17 35 32 -4 6 -17 16 -29 23 -13 6 -23 20 -23 30 0 11 -7 21 -15 25
-10 3 -15 -1 -15 -12z"/>
<path d="M361 1414 c0 -11 3 -14 6 -6 3 7 2 16 -1 19 -3 4 -6 -2 -5 -13z"/>
<path d="M303 1154 c-4 -10 -2 -19 4 -21 5 -2 8 -16 6 -31 l-5 -27 26 29 c26
29 34 56 17 56 -5 0 -16 3 -25 6 -10 4 -18 -1 -23 -12z"/>
<path d="M560 1110 c0 -5 5 -10 10 -10 6 0 10 5 10 10 0 6 -4 10 -10 10 -5 0
-10 -4 -10 -10z"/>
<path d="M580 944 c0 -11 5 -14 18 -9 9 4 25 8 34 9 34 4 27 12 -12 14 -31 2
-40 -1 -40 -14z"/>
<path d="M570 880 c0 -12 8 -12 35 0 18 8 17 9 -7 9 -16 1 -28 -3 -28 -9z"/>
<path d="M670 876 c-8 -10 -24 -22 -37 -27 -13 -5 -20 -14 -17 -22 7 -19 -22
-83 -41 -91 -11 -4 -14 -13 -9 -30 4 -18 1 -27 -15 -36 -39 -20 -25 -38 27
-33 26 3 53 5 59 6 14 0 28 35 19 45 -3 3 -12 -3 -20 -13 -23 -32 -28 1 -7 43
16 32 27 41 58 47 33 6 35 8 17 15 -25 10 -35 40 -22 64 5 9 8 24 6 33 -3 14
-4 14 -18 -1z"/>
<path d="M500 785 c-7 -8 -18 -15 -25 -15 -8 0 -11 -8 -8 -21 5 -19 7 -19 34
7 16 15 29 31 29 36 0 13 -17 9 -30 -7z"/>
<path d="M567 773 c-4 -3 -7 -11 -7 -17 0 -6 5 -5 12 2 6 6 9 14 7 17 -3 3 -9
2 -12 -2z"/>
<path d="M425 750 c-3 -5 -1 -10 4 -10 6 0 11 5 11 10 0 6 -2 10 -4 10 -3 0
-8 -4 -11 -10z"/>
<path d="M1796 1324 c-3 -9 -6 -17 -6 -18 0 -1 9 -2 20 -2 11 0 20 1 20 2 0
11 -14 34 -20 34 -4 0 -11 -7 -14 -16z"/>
<path d="M420 219 c0 -5 5 -9 10 -9 6 0 10 -7 10 -15 0 -8 6 -15 14 -15 8 0
13 8 11 18 -2 9 -4 19 -4 22 -2 10 -41 9 -41 -1z"/>
<path d="M439 158 c-1 -7 -3 -23 -4 -35 -3 -30 21 -51 38 -34 9 10 8 11 -7 5
-17 -7 -18 -4 -12 29 4 21 2 38 -4 42 -5 3 -11 0 -11 -7z"/>
<path d="M590 93 c0 -10 -11 -35 -25 -56 -34 -49 -18 -47 18 2 29 42 33 56 17
66 -5 3 -10 -2 -10 -12z"/>
<path d="M430 59 c0 -5 5 -7 10 -4 6 3 10 8 10 11 0 2 -4 4 -10 4 -5 0 -10 -5
-10 -11z"/>
<path d="M386 24 c-8 -22 -8 -24 8 -24 7 0 16 9 19 20 6 24 -18 28 -27 4z"/>
<path d="M640 10 c0 -5 7 -7 15 -4 8 4 15 8 15 10 0 2 -7 4 -15 4 -8 0 -15 -4
-15 -10z"/>
</g>
</svg>
